<?xml version="1.0" encoding="UTF-8"?>
<svg width="676px" height="548px" viewBox="0 0 676 548" version="1.1" xmlns="http://www.w3.org/2000/svg" xmlns:xlink="http://www.w3.org/1999/xlink">
    <!-- Generator: Sketch 52.6 (67491) - http://www.bohemiancoding.com/sketch -->
    <title>z</title>
    <desc>Created with Sketch.</desc>
    <g id="AUDIT-TOOL" stroke="none" stroke-width="1" fill="none" fill-rule="evenodd">
        <g id="Medium-Devices:-Tablets---6-col-Copy-2" transform="translate(-44.000000, -5034.000000)" fill-rule="nonzero">
            <g id="vulnerabilities" transform="translate(-78.000000, 5009.000000)">
                <g id="Group-7" transform="translate(122.000000, 15.000000)">
                    <g id="z">
                        <g id="Group-18" transform="translate(111.000000, 517.500000) scale(-1, 1) translate(-111.000000, -517.500000) translate(71.000000, 477.000000)">
                            <rect id="Rectangle" fill="#323235" x="3" y="19" width="8" height="7"></rect>
                            <rect id="Rectangle-Copy-11" fill="#323235" transform="translate(24.955841, 68.657005) rotate(20.000000) translate(-24.955841, -68.657005) " x="20.955841" y="65.1570047" width="8" height="7"></rect>
                            <rect id="Rectangle-Copy-12" fill="#323235" transform="translate(67.313934, 20.252306) rotate(40.000000) translate(-67.313934, -20.252306) " x="63.3139344" y="16.752306" width="8" height="7"></rect>
                            <rect id="Rectangle-Copy-13" fill="#00D242" transform="translate(67.313934, 5.252306) rotate(40.000000) translate(-67.313934, -5.252306) " x="63.3139344" y="1.75230599" width="8" height="7"></rect>
                            <rect id="Rectangle-Copy-17" fill="#00D242" x="10.3139344" y="33.752306" width="8" height="7"></rect>
                            <rect id="Rectangle-Copy-16" fill="#00D242" transform="translate(35.313934, 10.252306) rotate(70.000000) translate(-35.313934, -10.252306) " x="31.3139344" y="6.75230599" width="8" height="7"></rect>
                            <rect id="Rectangle-Copy-14" fill="#00D242" transform="translate(11.200686, 75.139058) rotate(40.000000) translate(-11.200686, -75.139058) " x="8.70068633" y="73.1390579" width="5" height="4"></rect>
                            <rect id="Rectangle-Copy-15" fill="#00D242" transform="translate(77.200686, 34.139058) rotate(80.000000) translate(-77.200686, -34.139058) " x="74.7006863" y="32.1390579" width="5" height="4"></rect>
                            <path d="M72.3525391,79.515625 L37.0976562,65.1015625 C26.5677083,58.5045573 25.1575521,50.4326172 32.8671875,40.8857422 C44.4316406,26.5654297 51.1152344,29.828125 56.2763672,31.578125 C61.4375,33.328125 63.8958512,37.5751953 66.6962891,47.472168 C68.5632476,54.0701497 71.7048492,63.3307292 76.1210938,75.2539062 C77.4474239,78.0835594 77.8067176,79.8420229 77.1989746,80.5292969 C76.5912317,81.2165708 74.9757531,80.8786802 72.3525391,79.515625 Z M32.1669922,54.8007813 C33.0683594,56.7871094 43.1763943,62.9955258 52.2680664,54.8007813 C61.3597386,46.6060367 61.3597386,39.1381836 58.3148167,36.1220703 C55.2698948,33.105957 48.3339844,32.7329102 41.894043,36.1220703 C35.4541016,39.5112305 31.4951172,46.9677734 31.4951172,49.6801758 C31.4951172,52.3925781 31.265625,52.8144531 32.1669922,54.8007813 Z" id="Combined-Shape" fill="#FDCA31"></path>
                            <path d="M47.8364636,29.1905257 C47.8219296,29.1448755 47.8051742,29.09412 47.7860214,29.038328 C47.5808363,28.4406238 47.3227388,27.8120971 46.0726596,24.8359934 C43.4456502,18.5817876 43.6791897,14.3991289 47.1280413,12.6897326 C48.3090889,9.83779172 47.6967355,7.83715485 45.2473008,6.34873215 C44.1863471,5.70403341 44.1045012,4.58781351 45.0006248,3.85529613 C45.396995,3.53129169 45.9037514,3.29640963 46.8180967,2.94803587 C48.075582,2.46892271 47.9641775,2.51298289 48.1636746,2.40183039 C48.9466908,1.96556217 50.1639598,1.50088919 51.839291,0.990227351 L52.5021579,0.788177255 L52.924109,1.33788082 C56.1493963,5.53967529 57.4366886,9.23540455 56.6748998,12.431558 C55.9634669,15.4164385 54.4085844,17.9128549 52.0292895,19.8938996 C51.1364533,22.0451986 51.4228465,23.950398 52.9049152,25.7623904 C54.9838833,28.3041583 54.2859428,31.5246689 51.1216675,35.2247869 L53.6232755,44.4942868 L51.7517756,43.7276084 C47.2644717,41.8893404 45.3092479,38.3357736 46.0041259,33.3297938 C46.2369055,31.6528237 46.6037795,30.551729 47.127418,29.8476248 C47.2887972,29.6306283 47.5842025,29.3805512 47.8364636,29.1905257 Z" id="Path-17" stroke="#EAEAEA" stroke-width="2" fill="#FF0000"></path>
                            <path d="M19.8613402,19.602377 C15.4589619,19.7122501 12.74733,18.2728377 12.0437049,15.1950308 C11.5603814,13.0808704 9.38335227,12.1473835 5.10731714,12.5368925 L2.65541294,12.7602393 L10.6200758,3.46269137 L10.8630171,3.37253451 C12.8348449,2.64077831 15.2078466,4.83427345 18.5643011,9.78079691 C18.9371042,10.3302098 19.7958945,10.7217822 21.2151991,11.0217873 C21.6240135,11.1082003 22.0324219,11.1805734 22.8379072,11.31852 C24.1055625,11.5431092 24.6816009,11.705743 25.1528268,12.1107929 C26.354262,13.1435062 26.9121528,14.4127026 27.1914298,16.187198 C27.2433921,16.5173612 27.2705093,16.733093 27.3437659,17.3609711 C27.4723418,18.4629875 27.5609328,18.9412892 27.7476113,19.3855873 C27.722608,19.3260789 27.9765921,19.9329773 28.0366408,20.0737645 C28.1312311,20.2955364 28.2054716,20.4615568 28.274724,20.6046269 C28.6257875,21.3298973 28.8978032,21.5726255 29.8236663,21.9154986 C30.5471973,22.1834425 31.4218462,22.4198285 33.9146942,23.0398168 C38.387324,24.1521904 41.2529852,30.8671585 42.8853159,43.1416121 L43.6743498,49.0748219 L40.9994587,43.7203368 C36.6723133,35.0584383 32.2917502,30.1920153 27.9701625,29.0549774 C23.1825444,27.7953238 20.4433141,24.5862876 19.8613402,19.602377 Z" id="Path-18" stroke="#EAEAEA" stroke-width="2" fill="#FF0000"></path>
                            <path d="M0.11824074,54.8062198 C6.53278593,49.8520633 11.1266983,48.1528199 14.0409508,50.0344014 C16.1362249,51.3872112 18.3738208,51.3872112 20.8369975,50.0394851 C24.4439941,47.6627898 28.4790881,46.472168 32.9179687,46.472168 C37.7065441,46.472168 40.4152407,49.2175076 40.7912909,54.3683484 L40.9810102,56.9669754 L39.1014109,55.1625469 C34.7714314,51.0057365 31.3388688,50.5340133 28.3825951,53.483766 C25.477277,56.3826756 22.7094624,57.2838399 19.0330232,57.0650443 C18.3828896,57.026353 17.8925263,56.9766519 16.7116796,56.8412585 C15.1302718,56.6599375 14.3948264,56.5976562 13.4985352,56.5976562 C10.6784753,56.5976562 8.1881779,58.3289241 5.99144483,61.9308402 L5.22750417,63.1834503 L-0.66627327,55.4121248 L0.11824074,54.8062198 Z" id="Path-19" stroke="#EAEAEA" stroke-width="2" fill="#FF0000"></path>
                        </g>
                        <g id="Group-3" transform="translate(0.000000, 379.000000)">
                            <rect id="Rectangle" fill="#FF0000" transform="translate(25.049420, 111.049420) rotate(20.000000) translate(-25.049420, -111.049420) " x="19.5494202" y="105.54942" width="11" height="11" rx="2"></rect>
                            <rect id="Rectangle-Copy-6" fill="#FF0000" transform="translate(79.549420, 40.549420) rotate(20.000000) translate(-79.549420, -40.549420) " x="72.5494202" y="33.5494202" width="14" height="14" rx="2"></rect>
                            <rect id="Rectangle-Copy" fill="#FDCA31" x="37" y="88" width="8" height="8" rx="2"></rect>
                            <rect id="Rectangle-Copy-5" fill="#FDCA31" x="21" y="32" width="11" height="11" rx="2"></rect>
                            <rect id="Rectangle-Copy-4" fill="#323235" transform="translate(35.049420, 60.049420) rotate(20.000000) translate(-35.049420, -60.049420) " x="29.5494202" y="54.5494202" width="11" height="11" rx="2"></rect>
                            <rect id="Rectangle-Copy-7" fill="#323235" transform="translate(57.549420, 25.549420) rotate(-10.000000) translate(-57.549420, -25.549420) " x="50.5494202" y="18.5494202" width="14" height="14" rx="2"></rect>
                            <rect id="Rectangle-Copy-3" fill="#00D242" transform="translate(19.667197, 68.667197) rotate(-14.000000) translate(-19.667197, -68.667197) " x="14.1671969" y="63.1671969" width="11" height="11" rx="2"></rect>
                            <rect id="Rectangle-Copy-8" fill="#00D242" transform="translate(5.167197, 5.167197) rotate(-84.000000) translate(-5.167197, -5.167197) " x="1.16719692" y="1.16719692" width="8" height="8" rx="2"></rect>
                        </g>
                        <g id="Group-3-Copy" transform="translate(631.500000, 146.500000) rotate(180.000000) translate(-631.500000, -146.500000) translate(587.000000, 87.000000)">
                            <rect id="Rectangle" fill="#FF0000" transform="translate(25.049420, 111.049420) rotate(20.000000) translate(-25.049420, -111.049420) " x="19.5494202" y="105.54942" width="11" height="11" rx="2"></rect>
                            <rect id="Rectangle-Copy-6" fill="#FF0000" transform="translate(79.549420, 40.549420) rotate(20.000000) translate(-79.549420, -40.549420) " x="72.5494202" y="33.5494202" width="14" height="14" rx="2"></rect>
                            <rect id="Rectangle-Copy" fill="#FDCA31" x="37" y="88" width="8" height="8" rx="2"></rect>
                            <rect id="Rectangle-Copy-5" fill="#FDCA31" x="21" y="32" width="11" height="11" rx="2"></rect>
                            <rect id="Rectangle-Copy-4" fill="#323235" transform="translate(35.049420, 60.049420) rotate(20.000000) translate(-35.049420, -60.049420) " x="29.5494202" y="54.5494202" width="11" height="11" rx="2"></rect>
                            <rect id="Rectangle-Copy-7" fill="#323235" transform="translate(57.549420, 25.549420) rotate(-10.000000) translate(-57.549420, -25.549420) " x="50.5494202" y="18.5494202" width="14" height="14" rx="2"></rect>
                            <rect id="Rectangle-Copy-3" fill="#00D242" transform="translate(19.667197, 68.667197) rotate(-14.000000) translate(-19.667197, -68.667197) " x="14.1671969" y="63.1671969" width="11" height="11" rx="2"></rect>
                            <rect id="Rectangle-Copy-8" fill="#00D242" transform="translate(5.167197, 5.167197) rotate(-84.000000) translate(-5.167197, -5.167197) " x="1.16719692" y="1.16719692" width="8" height="8" rx="2"></rect>
                        </g>
                        <g id="Group-17" transform="translate(490.000000, 0.000000)">
                            <path d="" id="Path-8" stroke="#979797"></path>
                            <path d="M77,31.1850947 C77,35.9982455 81.4172169,57.1666431 89.5067529,69.4063205 C94.8997769,77.5661055 99.0946897,79.9150421 102.091491,76.4531305 C114.273394,67.1810876 118.453068,56.2116144 114.630514,43.5447109 C110.807961,30.8778074 100.258917,25.0698276 82.9833846,26.1207715 C78.9944615,26.2882197 77,27.9763274 77,31.1850947 Z" id="Path-10" fill="#FDCA31"></path>
                            <path d="M30.6715145,11.5736085 C30.6688827,16.4082319 35.0939758,37.6686514 43.2124409,49.9585095 C48.6247509,58.1517483 52.8368513,60.5088703 55.8487421,57.0298756 C68.089356,47.709807 72.2934331,36.689111 68.4609733,23.9677876 C64.6285135,11.2464643 54.0361942,5.41834188 36.6840155,6.48342047 C32.677436,6.65379686 30.673269,8.3505262 30.6715145,11.5736085 Z" id="Path-10" fill="#FDCA31" transform="translate(50.251601, 32.472640) scale(-1, 1) rotate(-43.000000) translate(-50.251601, -32.472640) "></path>
                            <path d="M46.3136699,83 L41.2807429,80.8316869 C40.279326,75.0635973 41.9569684,71.631669 46.3136699,70.535902 C52.8487223,68.8922515 51.7153984,68.856049 52.9701306,64.0945913 C54.2248628,59.3331336 58.6343271,57.710327 61.1930548,57.710327 C63.7517824,57.710327 66.2195211,52.8111899 65.2057212,50.0266107 C64.5298546,48.1702246 66.4564154,48.8314696 70.9854037,52.0103457 C71.1549985,57.2302776 69.8466959,60.1657007 67.0604959,60.8166152 C62.8811959,61.7929869 59.2408304,61.464098 58.7032419,66 C58.1656533,70.535902 56.811587,73.4674855 54.3675378,73.4674855 C51.9234885,73.4674855 50.0724826,74.0291735 48.5512443,75.6061784 C47.5370854,76.6575149 46.7912273,79.1221222 46.3136699,83 Z" id="Path-11" fill="#FF0000"></path>
                            <path d="M42.6251907,115.217737 L37.5781394,113.082817 C36.5755162,107.399768 38.2591152,104.017741 42.6289367,102.936737 C49.1836688,101.315231 48.0470286,101.279907 49.3068755,96.5880116 C50.5667224,91.8961159 54.9896199,90.2957983 57.5558596,90.2950148 C60.1220992,90.2942314 62.5985552,85.4663074 61.5826158,82.7229442 C60.9053228,80.8940355 62.837341,81.5449768 67.3786704,84.6757684 C67.5471943,89.8189671 66.2341685,92.7116693 63.439593,93.3538749 C59.2477298,94.3171833 55.5967756,93.9942404 55.0562456,98.4636743 C54.5157156,102.933108 53.1567929,105.822041 50.7055683,105.822789 C48.2543437,105.823538 46.3977347,106.377541 44.8715564,107.931846 C43.8541041,108.968049 43.1053156,111.396679 42.6251907,115.217737 Z" id="Path-11" fill="#323235" transform="translate(52.345259, 98.464528) rotate(-17.000000) translate(-52.345259, -98.464528) "></path>
                            <path d="M68.390403,101.603853 L63.3425282,99.4704768 C62.3407966,93.789038 64.0254918,90.4075114 68.3966141,89.3258971 C74.9532974,87.7034756 73.8163823,87.6683891 75.0774831,82.9774035 C76.3385839,78.2864178 80.7628996,76.6856081 83.329776,76.6843091 C85.8966523,76.6830101 88.3746912,71.8557854 87.3590503,69.1133066 C86.6819563,67.2849874 88.6143231,67.9353791 93.1561507,71.0644816 C93.3236844,76.2063713 92.0097525,79.0986202 89.214355,79.7412282 C85.0212588,80.7051403 81.3694638,80.3830113 80.8279029,84.8514456 C80.2863421,89.31988 78.9265027,92.2083698 76.4746699,92.2096106 C74.0228372,92.2108514 72.1656565,92.7650907 70.6387878,94.3193165 C69.6208752,95.3554669 68.8714137,97.7836456 68.390403,101.603853 Z" id="Path-11-Copy-2" fill="#323235" transform="translate(78.116370, 84.852860) scale(-1, 1) rotate(-34.000000) translate(-78.116370, -84.852860) "></path>
                            <rect id="Rectangle" fill="#FF0000" x="29" y="81" width="7" height="7"></rect>
                            <rect id="Rectangle-Copy" fill="#FF0000" x="62" y="96" width="7" height="7"></rect>
                            <rect id="Rectangle-Copy-2" fill="#FF0000" x="20" y="107" width="7" height="7"></rect>
                            <polygon id="Rectangle-Copy-3" fill="#FF0000" transform="translate(6.062990, 61.524333) rotate(50.000000) translate(-6.062990, -61.524333) " points="2.46500485 57.9270291 9.65711073 57.9308939 9.66097553 65.1216369 2.46886965 65.1177721"></polygon>
                            <polygon id="Rectangle-Copy-4" fill="#00D242" transform="translate(20.990875, 58.203403) rotate(50.000000) translate(-20.990875, -58.203403) " points="17.3928895 54.6060989 24.5849953 54.6099637 24.5888601 61.8007066 17.3967543 61.7968418"></polygon>
                            <polygon id="Rectangle-Copy-5" fill="#00D242" transform="translate(24.861067, 94.733635) rotate(50.000000) translate(-24.861067, -94.733635) " points="21.2630818 91.1363314 28.4551877 91.1401962 28.4590525 98.3309392 21.2669466 98.3270744"></polygon>
                            <polygon id="Rectangle-Copy-9" fill="#00D242" transform="translate(11.591836, 98.608054) rotate(50.000000) translate(-11.591836, -98.608054) " points="7.993851 95.01075 15.1859569 95.0146148 15.1898217 102.205358 7.9977158 102.201493"></polygon>
                            <rect id="Rectangle-Copy-10" fill="#00D242" x="34" y="96" width="7" height="7"></rect>
                            <polygon id="Rectangle-Copy-6" fill="#00D242" transform="translate(61.904336, 112.445263) rotate(50.000000) translate(-61.904336, -112.445263) " points="58.306351 108.847959 65.4984569 108.851824 65.5023217 116.042567 58.3102158 116.038702"></polygon>
                            <polygon id="Rectangle-Copy-7" fill="#00D242" transform="translate(91.207221, 113.552240) rotate(50.000000) translate(-91.207221, -113.552240) " points="87.6092356 109.954936 94.8013415 109.958801 94.8052063 117.149544 87.6131004 117.145679"></polygon>
                            <polygon id="Rectangle-Copy-8" fill="#00D242" transform="translate(102.264913, 84.770845) rotate(50.000000) translate(-102.264913, -84.770845) " points="98.6669279 81.1735407 105.859034 81.1774055 105.862899 88.3681485 98.6707927 88.3642837"></polygon>
                            <path d="M17.201992,86.4317117 L12.1539704,84.2939619 C11.1482929,78.6101493 12.8299879,75.2289103 17.1990555,74.1502448 C23.7526568,72.5322467 22.6160404,72.4963026 23.8732866,67.8049137 C25.1305327,63.1135249 29.5523918,61.515555 32.1185337,61.5161692 C34.6846757,61.5167834 37.1584107,56.6900236 36.1410171,53.9460023 C35.4627547,52.1166548 37.3950539,52.7686733 41.9379145,55.9020578 C42.1092305,61.0455449 40.7978285,63.9376425 38.0037085,64.5783506 C33.8125283,65.5394128 30.1615369,65.2144692 29.6234593,69.6837794 C29.0853817,74.1530897 27.7280825,77.0413929 25.2769512,77.0408063 C22.82582,77.0402196 20.9695828,77.5932332 19.4443081,79.1467657 C18.4274582,80.1824541 17.6800195,82.6107694 17.201992,86.4317117 Z" id="Path-11-Copy" fill="#323235" transform="translate(26.912235, 69.683111) rotate(13.000000) translate(-26.912235, -69.683111) "></path>
                            <path d="M89,96.2298449 L93.7082656,92 C95.1305497,95.1221719 96.1594717,97.1252968 96.7950316,98.0093747 C97.4668088,98.9438318 99.6053219,100.202936 99.6053219,100.202936 C99.6053219,100.202936 99.9022469,91.570106 107.951123,92.3884908 C116,93.2068756 112.926049,105.21756 107.951123,105.779191 C104.634506,106.153612 107.317465,107.365416 116,109.414604 L113.011936,115 C105.344963,113.692843 101.136753,111.184635 100.387306,107.475377 C95.5492552,106.731016 91.7534865,102.982505 89,96.2298449 Z M104.099005,101.264901 C108.125988,99.9094398 109.177268,98.5539788 107.252845,97.1985178 C105.328422,95.8430568 104.277142,97.1985178 104.099005,101.264901 Z" id="Combined-Shape" fill="#FF0000"></path>
                            <path d="M2,41.8670162 L5.1646113,37 C6.4982308,38.922237 8.36311009,39.570752 10.7592492,38.9455451 C14.3534578,38.0077348 18.0784134,37.8824192 19.8589742,41.8670162 C21.0460147,44.5234142 22.75969,45.3002612 25,44.1975571 L25,50 C20.303603,49.6315226 17.4659482,48.4622479 16.4870355,46.4921761 C15.0186665,43.5370683 13.5105398,44.2927092 10.0267991,45.1619662 C7.70430525,45.7414708 5.02870556,44.6431541 2,41.8670162 Z" id="Path-14" fill="#FF0000"></path>
                        </g>
                    </g>
                </g>
            </g>
        </g>
    </g>
</svg>