<?xml version="1.0" encoding="UTF-8"?>
<svg width="350px" height="454px" viewBox="0 0 350 454" version="1.1" xmlns="http://www.w3.org/2000/svg" xmlns:xlink="http://www.w3.org/1999/xlink">
    <!-- Generator: Sketch 52.6 (67491) - http://www.bohemiancoding.com/sketch -->
    <title>Group 9</title>
    <desc>Created with Sketch.</desc>
    <g id="AUDIT-TOOL" stroke="none" stroke-width="1" fill="none" fill-rule="evenodd">
        <g id="Extra-large:-Desktops---12-col-Copy-5" transform="translate(-53.000000, -892.000000)" fill-rule="nonzero">
            <g id="vulnerabilities" transform="translate(0.000000, 768.000000)">
                <g id="Group-7" transform="translate(52.000000, 67.000000)">
                    <g id="Group-9" transform="translate(0.000000, 45.000000)">
                        <g id="Group-18" transform="translate(149.500000, 380.000000) scale(-1, 1) translate(-149.500000, -380.000000) translate(66.000000, 294.000000)">
                            <rect id="Rectangle" fill="#323235" x="5" y="41" width="17" height="15"></rect>
                            <polygon id="Rectangle-Copy-11" fill="#323235" transform="translate(50.811467, 145.932628) rotate(20.000000) translate(-50.811467, -145.932628) " points="42.3664311 138.539964 59.2540454 138.542772 59.2565027 153.325291 42.3688883 153.322483"></polygon>
                            <polygon id="Rectangle-Copy-12" fill="#323235" transform="translate(140.221948, 43.705957) rotate(40.000000) translate(-140.221948, -43.705957) " points="131.774964 36.3136783 148.665167 36.3179809 148.668932 51.0982357 131.778729 51.0939331"></polygon>
                            <polygon id="Rectangle-Copy-13" fill="#00D242" transform="translate(140.221948, 12.027213) rotate(40.000000) translate(-140.221948, -12.027213) " points="131.774964 4.63493434 148.665167 4.63923693 148.668932 19.4194918 131.778729 19.4151892"></polygon>
                            <rect id="Rectangle-Copy-17" fill="#00D242" x="19" y="72" width="17" height="15"></rect>
                            <polygon id="Rectangle-Copy-16" fill="#00D242" transform="translate(72.675579, 22.586794) rotate(70.000000) translate(-72.675579, -22.586794) " points="64.2271967 15.1970589 81.1215046 15.1998673 81.1239619 29.9765298 64.2296539 29.9737215"></polygon>
                            <polygon id="Rectangle-Copy-14" fill="#00D242" transform="translate(21.776756, 159.622181) rotate(40.000000) translate(-21.776756, -159.622181) " points="16.4974921 155.397907 27.0538686 155.400596 27.0560199 163.846456 16.4996434 163.843766"></polygon>
                            <polygon id="Rectangle-Copy-15" fill="#00D242" transform="translate(161.091141, 73.033614) rotate(80.000000) translate(-161.091141, -73.033614) " points="155.81106 68.8114334 166.370476 68.8123673 166.371223 77.2557951 155.811807 77.2548612"></polygon>
                            <path d="M150.217134,169.116068 L76.1558264,138.533297 C54.035154,124.536223 51.0727838,107.409733 67.2687157,87.1538276 C91.5626135,56.7699689 105.6031,63.6925325 116.445293,67.4055626 C127.287486,71.1185928 132.45184,80.1297358 138.334829,101.128455 C142.256822,115.127601 148.856507,134.776064 158.133884,160.073845 C160.920157,166.077609 161.67494,169.808597 160.39823,171.266808 C159.121521,172.725019 155.727822,172.008105 150.217134,169.116068 Z M65.7977881,116.677805 C67.6913253,120.89226 88.9256685,134.064853 108.024899,116.677805 C127.124129,99.2907567 127.124129,83.4459774 120.727543,77.0465947 C114.330957,70.647212 99.7604192,69.8557067 86.2317831,77.0465947 C72.703147,84.2374827 64.386354,100.058265 64.386354,105.813255 C64.386354,111.568244 63.9042508,112.46335 65.7977881,116.677805 Z" id="Combined-Shape" fill="#FDCA31"></path>
                            <path d="M98.5018941,11.6043318 C98.5001598,11.6049955 98.4984232,11.6056601 98.4966842,11.6063256 C98.4986136,11.6055873 98.5004441,11.6048867 98.5021774,11.6042233 Z M98.3699401,63.3724597 C98.3350083,63.2590005 98.2933743,63.1299299 98.2444108,62.9853755 C97.8168959,61.7232284 97.2812298,60.4011643 94.6829522,54.1319298 C89.2399659,40.9988615 89.7278592,32.260511 96.8604326,28.6985265 C99.3550062,22.621618 98.0704746,18.3351382 92.9312074,15.1700922 C90.7850841,13.8483903 90.6225923,11.6024267 92.4276354,10.1070314 C93.2421082,9.43227815 94.2915652,8.93929312 96.1829443,8.20894118 C98.802241,7.19750541 98.5672954,7.29167912 98.9861186,7.05517862 C100.607421,6.13966409 103.132228,5.16286009 106.608024,4.08910456 L107.946731,3.67554626 L108.792677,4.79248056 C115.472543,13.6121548 118.134348,21.3570888 116.562685,28.0400822 C115.089157,34.3057842 111.866284,39.5453199 106.930117,43.7044953 C105.046039,48.2855563 105.644344,52.3539906 108.754725,56.2080648 C113.037705,61.5151061 111.587443,68.2475428 105.012439,76.0185547 L110.17362,95.4008188 L106.431446,93.8471239 C97.1474001,89.9925261 93.1132758,82.561724 94.5490563,72.0786903 C95.0299723,68.567388 95.7858235,66.2682644 96.8605082,64.803712 C97.3151902,64.1840833 97.8090591,63.7309292 98.3699401,63.3724597 Z" id="Path-17" stroke="#EAEAEA" stroke-width="4" fill="#FF0000"></path>
                            <path d="M41.0727186,42.1693192 C31.8708462,42.4187573 26.2183283,39.4161001 24.7577692,32.9881644 C23.7347099,28.4856695 19.1479617,26.5068723 10.1825334,27.3285466 L5.29623845,27.7763715 L21.7476329,8.45419138 L22.2341737,8.27252731 C26.298392,6.75503384 31.2347222,11.3459063 38.2179206,21.7003333 C39.0140047,22.8807372 40.8231502,23.7106852 43.806855,24.3452283 C44.31641,24.4535952 44.8516278,24.5559645 45.512642,24.6738189 C45.8090867,24.726673 46.9348501,24.9222594 47.1975595,24.9690885 C49.8267276,25.4377491 51.0246986,25.7780459 51.991599,26.6142525 C54.4796803,28.7660252 55.6347701,31.409942 56.2143451,35.1150576 C56.3225246,35.8066286 56.3790419,36.2590094 56.5318175,37.5764615 C56.8015074,39.9021181 56.9877001,40.9135286 57.3828428,41.8597359 C57.3304889,41.7343696 57.861011,43.0098248 57.9865598,43.3059838 C58.1846701,43.7733093 58.3403184,44.12351 58.4857697,44.425842 C59.2300936,45.9729781 59.8164492,46.4994072 61.7702634,47.227392 C63.2849704,47.7917668 65.1121152,48.2886033 70.3206856,49.591946 C79.6097965,51.916364 85.5795961,65.9908077 88.9827551,91.7379268 L90.5593398,103.66582 L85.2086584,92.8894354 C76.1625474,74.6703783 66.9990503,64.4281714 57.9464513,62.0317825 C47.9567332,59.3873211 42.260633,52.648517 41.0727186,42.1693192 Z" id="Path-18" stroke="#EAEAEA" stroke-width="4" fill="#FF0000"></path>
                            <path d="M42.3383479,106.359274 C49.8745604,101.455838 58.2997646,99 67.5666717,99 C77.5600587,99 83.2080341,104.674065 83.9945969,115.353088 L84.3752382,120.520987 L80.6213068,116.948863 C71.4960321,108.265537 64.2213831,107.274599 57.9702348,113.457134 C51.8932274,119.467439 46.1145406,121.332366 38.4277791,120.878926 C37.0659446,120.798592 36.0379542,120.695315 33.5613954,120.413853 C30.2375521,120.036098 28.6906867,119.906253 26.8034348,119.906253 C20.8402141,119.906253 15.583063,123.528928 10.956628,131.048075 L9.43235381,133.525412 L-2.80339501,117.533598 L-1.21573901,116.318179 C12.2149719,106.036391 21.8195145,102.514991 27.88151,106.394505 C32.2956599,109.219442 37.0164766,109.23153 42.3383479,106.359274 Z" id="Path-19" stroke="#EAEAEA" stroke-width="4" fill="#FF0000"></path>
                        </g>
                        <g id="Group-3" transform="translate(44.500000, 80.500000) rotate(180.000000) translate(-44.500000, -80.500000) translate(0.000000, 21.000000)">
                            <rect id="Rectangle" fill="#FF0000" transform="translate(25.049420, 111.049420) rotate(20.000000) translate(-25.049420, -111.049420) " x="19.5494202" y="105.54942" width="11" height="11" rx="2"></rect>
                            <rect id="Rectangle-Copy-6" fill="#FF0000" transform="translate(79.549420, 40.549420) rotate(20.000000) translate(-79.549420, -40.549420) " x="72.5494202" y="33.5494202" width="14" height="14" rx="2"></rect>
                            <rect id="Rectangle-Copy" fill="#FDCA31" x="37" y="88" width="8" height="8" rx="2"></rect>
                            <rect id="Rectangle-Copy-5" fill="#FDCA31" x="21" y="32" width="11" height="11" rx="2"></rect>
                            <rect id="Rectangle-Copy-4" fill="#323235" transform="translate(35.049420, 60.049420) rotate(20.000000) translate(-35.049420, -60.049420) " x="29.5494202" y="54.5494202" width="11" height="11" rx="2"></rect>
                            <rect id="Rectangle-Copy-7" fill="#323235" transform="translate(57.549420, 25.549420) rotate(-10.000000) translate(-57.549420, -25.549420) " x="50.5494202" y="18.5494202" width="14" height="14" rx="2"></rect>
                            <rect id="Rectangle-Copy-3" fill="#00D242" transform="translate(19.667197, 68.667197) rotate(-14.000000) translate(-19.667197, -68.667197) " x="14.1671969" y="63.1671969" width="11" height="11" rx="2"></rect>
                            <rect id="Rectangle-Copy-8" fill="#00D242" transform="translate(5.167197, 5.167197) rotate(-84.000000) translate(-5.167197, -5.167197) " x="1.16719692" y="1.16719692" width="8" height="8" rx="2"></rect>
                        </g>
                        <g id="Group-17" transform="translate(285.500000, 66.000000) scale(-1, 1) translate(-285.500000, -66.000000) translate(220.000000, 0.000000)">
                            <path d="" id="Path-8" stroke="#979797"></path>
                            <path d="M86,34.7833748 C86,40.1518892 91.0967887,63.7627942 100.430869,77.4147421 C106.653589,86.5160407 111.493873,89.1360085 114.951721,85.2746455 C129.007762,74.9327516 133.830463,62.6975699 129.419824,48.5691006 C125.009185,34.4406313 112.837212,27.9625 92.9039053,29.1347066 C88.3013018,29.3214758 86,31.2043652 86,34.7833748 Z" id="Path-10" fill="#FDCA31"></path>
                            <path d="M34.136283,13.1469807 C34.2256655,18.5551815 39.5936551,42.4226597 48.9317762,56.325758 C55.1571903,65.5944903 59.9253237,68.311729 63.2361765,64.4774743 C76.7838338,54.2853568 81.2874754,42.0373476 76.7471011,27.7334467 C72.2067269,13.4295457 60.2180303,6.70762072 40.7810114,7.5676717 C36.291604,7.68174392 34.0766946,9.54151361 34.136283,13.1469807 Z" id="Path-10" fill="#FDCA31" transform="translate(56.295884, 36.827486) scale(-1, 1) rotate(-43.000000) translate(-56.295884, -36.827486) "></path>
                            <path d="M52.0221593,92 L46.3181752,89.6403651 C45.1832362,83.3633264 47.0845642,79.6285809 52.0221593,78.4361286 C59.4285519,76.6474502 58.1441182,76.6080533 59.566148,71.426467 C60.9881778,66.2448807 65.9855708,64.4788853 68.8854621,64.4788853 C71.7853534,64.4788853 74.5821239,59.1474714 73.4331507,56.117194 C72.6671685,54.0970091 74.8506041,54.8165993 79.9834576,58.2759645 C80.175665,63.9564785 78.692922,67.1509096 75.5352287,67.8592577 C70.7986887,68.9217799 66.6729411,68.5638714 66.0636741,73.5 C65.4544071,78.4361286 63.9197986,81.6263813 61.1498761,81.6263813 C58.3799536,81.6263813 56.2821469,82.23763 54.5580769,83.9537823 C53.4086968,85.0978839 52.563391,87.7799565 52.0221593,92 Z" id="Path-11" fill="#FF0000"></path>
                            <path d="M47.6277048,127.789031 L41.8721185,125.377805 C40.67244,119.09234 42.5485612,115.376224 47.500482,114.229455 C54.9283632,112.509302 53.6369239,112.458132 55.0176999,107.291234 C56.3984758,102.124337 61.4051239,100.404755 64.3199977,100.431364 C67.2348715,100.457972 69.9960855,95.1539091 68.8127534,92.1140486 C68.0238654,90.087475 70.2253313,90.8268718 75.4171511,94.3322392 C75.6636322,100.012718 74.2031908,103.192532 71.035827,103.871682 C66.2847813,104.890407 62.1343608,104.494755 61.5682446,109.42373 C61.0021283,114.352705 59.4895143,117.527867 56.7052808,117.502451 C53.9210474,117.477035 51.8181354,118.068841 50.1012546,119.76863 C48.9566673,120.901823 48.1321507,123.57529 47.6277048,127.789031 Z" id="Path-11" fill="#323235" transform="translate(58.482512, 109.394728) rotate(-17.000000) translate(-58.482512, -109.394728) "></path>
                            <path d="M77.2001675,112.883624 L71.4725494,110.41997 C70.2425891,104.079806 72.0814802,100.346703 76.9892226,99.2206593 C84.3508362,97.5315944 83.0687313,97.4723683 84.4069206,92.2745618 C85.7451099,87.0767553 90.7035935,85.3738885 93.5968437,85.4180075 C96.4900939,85.4621265 99.1975454,80.1343132 98.0040767,77.0644171 C97.2084309,75.0178197 99.3980572,75.7758857 104.572956,79.3386153 C104.853066,85.0635536 103.423399,88.2587636 100.283953,88.9242455 C95.5747845,89.9224683 91.4529192,89.4991758 90.9218141,94.4620968 C90.3907089,99.4250178 88.9092296,102.61523 86.1456505,102.573088 C83.3820715,102.530946 81.2985752,103.114745 79.605143,104.817205 C78.4761882,105.952178 77.6745297,108.640984 77.2001675,112.883624 Z" id="Path-11-Copy-2" fill="#323235" transform="translate(87.855104, 94.413985) scale(-1, 1) rotate(-34.000000) translate(-87.855104, -94.413985) "></path>
                            <rect id="Rectangle" fill="#FF0000" x="32" y="91" width="8" height="8"></rect>
                            <rect id="Rectangle-Copy" fill="#FF0000" x="69" y="107" width="8" height="8"></rect>
                            <rect id="Rectangle-Copy-2" fill="#FF0000" x="22" y="119" width="8" height="8"></rect>
                            <polygon id="Rectangle-Copy-3" fill="#FF0000" transform="translate(5.767406, 68.728467) rotate(50.000000) translate(-5.767406, -68.728467) " points="1.81750099 64.7554175 9.84857143 64.6241575 9.71731144 72.7015173 1.686241 72.8327773"></polygon>
                            <polygon id="Rectangle-Copy-4" fill="#00D242" transform="translate(22.772214, 65.072653) rotate(50.000000) translate(-22.772214, -65.072653) " points="18.8223087 61.0996036 26.8533791 60.9683436 26.7221191 69.0457034 18.6910487 69.1769633"></polygon>
                            <polygon id="Rectangle-Copy-5" fill="#00D242" transform="translate(27.180868, 105.286607) rotate(50.000000) translate(-27.180868, -105.286607) " points="23.2309625 101.313557 31.262033 101.182297 31.130773 109.259657 23.0997025 109.390917"></polygon>
                            <polygon id="Rectangle-Copy-9" fill="#00D242" transform="translate(12.065483, 109.551723) rotate(50.000000) translate(-12.065483, -109.551723) " points="8.11557791 105.578673 16.1466484 105.447413 16.0153884 113.524773 7.98431793 113.656033"></polygon>
                            <rect id="Rectangle-Copy-10" fill="#00D242" x="37" y="107" width="8" height="8"></rect>
                            <polygon id="Rectangle-Copy-6" fill="#00D242" transform="translate(69.377983, 124.784281) rotate(50.000000) translate(-69.377983, -124.784281) " points="65.4280779 120.811231 73.4591484 120.679971 73.3278884 128.757331 65.2968179 128.888591"></polygon>
                            <polygon id="Rectangle-Copy-7" fill="#00D242" transform="translate(102.757791, 126.002886) rotate(50.000000) translate(-102.757791, -126.002886) " points="98.8078856 122.029836 106.838956 121.898576 106.707696 129.975936 98.6766256 130.107196"></polygon>
                            <polygon id="Rectangle-Copy-8" fill="#00D242" transform="translate(115.353945, 94.319165) rotate(50.000000) translate(-115.353945, -94.319165) " points="111.404039 90.3461152 119.43511 90.2148552 119.30385 98.292215 111.272779 98.423475"></polygon>
                            <path d="M18.3341383,96.2626629 L12.6115056,93.9475658 C11.5155585,87.688023 13.4563475,83.9451534 18.4338727,82.718957 C25.9001605,80.8796623 24.6079102,80.8495632 26.0770146,75.6654515 C27.5461191,70.4813397 32.5880368,68.6820228 35.5062298,68.6611634 C38.4244229,68.640304 41.278046,63.2966987 40.1441028,60.2791912 C39.3881407,58.2675196 41.5800653,58.9703341 46.7198766,62.3876348 C46.8715285,68.0583211 45.3559392,71.2586686 42.1731086,71.9886774 C37.3988628,73.0836906 33.2497085,72.7559914 32.6003012,77.689164 C31.9508939,82.6223366 30.3831425,85.818885 27.5957385,85.8388095 C24.8083345,85.858734 22.6927937,86.4841638 20.9452239,88.2101663 C19.7801774,89.3608346 18.9098155,92.0450001 18.3341383,96.2626629 Z" id="Path-11-Copy" fill="#323235" transform="translate(29.522543, 77.711868) rotate(13.000000) translate(-29.522543, -77.711868) "></path>
                            <path d="M101,106.597657 L106.231406,102 C107.811722,105.393665 108.954969,107.570975 109.661146,108.531929 C110.407565,109.547643 112.783691,110.916235 112.783691,110.916235 C112.783691,110.916235 113.113608,101.532724 122.056804,102.422273 C131,103.311821 127.584499,116.366913 122.056804,116.977381 C118.371674,117.384361 121.352739,118.701539 131,120.928918 L127.679929,127 C119.16107,125.579177 114.485281,122.852864 113.652562,118.821062 C108.27695,118.011974 104.059429,113.937506 101,106.597657 Z M117.776673,112.070544 C122.251098,110.597217 123.419187,109.12389 121.280939,107.650563 C119.142691,106.177236 117.974602,107.650563 117.776673,112.070544 Z" id="Combined-Shape" fill="#FF0000"></path>
                            <path d="M1,47.2414021 L4.71497848,42 C6.28053181,44.0701013 8.46973793,44.7685021 11.2825968,44.0952024 C15.5018852,43.0852528 19.8746592,42.9502976 21.9648828,47.2414021 C23.3583651,50.1021384 25.3700709,50.9387428 28,49.7512154 L28,56 C22.4868383,55.6031781 19.1556783,54.3439593 18.0065199,52.2223435 C16.2827825,49.0399197 14.5123728,49.8536869 10.4227641,50.7898097 C7.69635834,51.4138916 4.55543696,50.2310891 1,47.2414021 Z" id="Path-14" fill="#FF0000"></path>
                        </g>
                    </g>
                </g>
            </g>
        </g>
    </g>
</svg>