<?xml version="1.0" encoding="UTF-8"?>
<svg width="407px" height="571px" viewBox="0 0 407 571" version="1.1" xmlns="http://www.w3.org/2000/svg" xmlns:xlink="http://www.w3.org/1999/xlink">
    <!-- Generator: Sketch 52.6 (67491) - http://www.bohemiancoding.com/sketch -->
    <title>z</title>
    <desc>Created with Sketch.</desc>
    <g id="AUDIT-TOOL" stroke="none" stroke-width="1" fill="none" fill-rule="evenodd">
        <g id="Extra-large:-Desktops---12-col-Copy-5" transform="translate(-968.000000, -835.000000)" fill-rule="nonzero">
            <g id="vulnerabilities" transform="translate(0.000000, 768.000000)">
                <g id="Group-7" transform="translate(52.000000, 67.000000)">
                    <g id="z" transform="translate(916.000000, 0.000000)">
                        <g id="Group-18" transform="translate(174.000000, 338.000000)">
                            <rect id="Rectangle" fill="#323235" x="3" y="19" width="8" height="7"></rect>
                            <rect id="Rectangle-Copy-11" fill="#323235" transform="translate(24.955841, 68.657005) rotate(20.000000) translate(-24.955841, -68.657005) " x="20.955841" y="65.1570047" width="8" height="7"></rect>
                            <rect id="Rectangle-Copy-12" fill="#323235" transform="translate(67.313934, 20.252306) rotate(40.000000) translate(-67.313934, -20.252306) " x="63.3139344" y="16.752306" width="8" height="7"></rect>
                            <rect id="Rectangle-Copy-13" fill="#00D242" transform="translate(67.313934, 5.252306) rotate(40.000000) translate(-67.313934, -5.252306) " x="63.3139344" y="1.75230599" width="8" height="7"></rect>
                            <rect id="Rectangle-Copy-17" fill="#00D242" x="10.3139344" y="33.752306" width="8" height="7"></rect>
                            <rect id="Rectangle-Copy-16" fill="#00D242" transform="translate(35.313934, 10.252306) rotate(70.000000) translate(-35.313934, -10.252306) " x="31.3139344" y="6.75230599" width="8" height="7"></rect>
                            <rect id="Rectangle-Copy-14" fill="#00D242" transform="translate(11.200686, 75.139058) rotate(40.000000) translate(-11.200686, -75.139058) " x="8.70068633" y="73.1390579" width="5" height="4"></rect>
                            <rect id="Rectangle-Copy-15" fill="#00D242" transform="translate(77.200686, 34.139058) rotate(80.000000) translate(-77.200686, -34.139058) " x="74.7006863" y="32.1390579" width="5" height="4"></rect>
                            <path d="M72.3525391,79.515625 L37.0976562,65.1015625 C26.5677083,58.5045573 25.1575521,50.4326172 32.8671875,40.8857422 C44.4316406,26.5654297 51.1152344,29.828125 56.2763672,31.578125 C61.4375,33.328125 63.8958512,37.5751953 66.6962891,47.472168 C68.5632476,54.0701497 71.7048492,63.3307292 76.1210938,75.2539062 C77.4474239,78.0835594 77.8067176,79.8420229 77.1989746,80.5292969 C76.5912317,81.2165708 74.9757531,80.8786802 72.3525391,79.515625 Z M32.1669922,54.8007813 C33.0683594,56.7871094 43.1763943,62.9955258 52.2680664,54.8007813 C61.3597386,46.6060367 61.3597386,39.1381836 58.3148167,36.1220703 C55.2698948,33.105957 48.3339844,32.7329102 41.894043,36.1220703 C35.4541016,39.5112305 31.4951172,46.9677734 31.4951172,49.6801758 C31.4951172,52.3925781 31.265625,52.8144531 32.1669922,54.8007813 Z" id="Combined-Shape" fill="#FDCA31"></path>
                            <path d="M47.8364636,29.1905257 C47.8219296,29.1448755 47.8051742,29.09412 47.7860214,29.038328 C47.5808363,28.4406238 47.3227388,27.8120971 46.0726596,24.8359934 C43.4456502,18.5817876 43.6791897,14.3991289 47.1280413,12.6897326 C48.3090889,9.83779172 47.6967355,7.83715485 45.2473008,6.34873215 C44.1863471,5.70403341 44.1045012,4.58781351 45.0006248,3.85529613 C45.396995,3.53129169 45.9037514,3.29640963 46.8180967,2.94803587 C48.075582,2.46892271 47.9641775,2.51298289 48.1636746,2.40183039 C48.9466908,1.96556217 50.1639598,1.50088919 51.839291,0.990227351 L52.5021579,0.788177255 L52.924109,1.33788082 C56.1493963,5.53967529 57.4366886,9.23540455 56.6748998,12.431558 C55.9634669,15.4164385 54.4085844,17.9128549 52.0292895,19.8938996 C51.1364533,22.0451986 51.4228465,23.950398 52.9049152,25.7623904 C54.9838833,28.3041583 54.2859428,31.5246689 51.1216675,35.2247869 L53.6232755,44.4942868 L51.7517756,43.7276084 C47.2644717,41.8893404 45.3092479,38.3357736 46.0041259,33.3297938 C46.2369055,31.6528237 46.6037795,30.551729 47.127418,29.8476248 C47.2887972,29.6306283 47.5842025,29.3805512 47.8364636,29.1905257 Z" id="Path-17" stroke="#EAEAEA" stroke-width="2" fill="#FF0000"></path>
                            <path d="M19.8613402,19.602377 C15.4589619,19.7122501 12.74733,18.2728377 12.0437049,15.1950308 C11.5603814,13.0808704 9.38335227,12.1473835 5.10731714,12.5368925 L2.65541294,12.7602393 L10.6200758,3.46269137 L10.8630171,3.37253451 C12.8348449,2.64077831 15.2078466,4.83427345 18.5643011,9.78079691 C18.9371042,10.3302098 19.7958945,10.7217822 21.2151991,11.0217873 C21.6240135,11.1082003 22.0324219,11.1805734 22.8379072,11.31852 C24.1055625,11.5431092 24.6816009,11.705743 25.1528268,12.1107929 C26.354262,13.1435062 26.9121528,14.4127026 27.1914298,16.187198 C27.2433921,16.5173612 27.2705093,16.733093 27.3437659,17.3609711 C27.4723418,18.4629875 27.5609328,18.9412892 27.7476113,19.3855873 C27.722608,19.3260789 27.9765921,19.9329773 28.0366408,20.0737645 C28.1312311,20.2955364 28.2054716,20.4615568 28.274724,20.6046269 C28.6257875,21.3298973 28.8978032,21.5726255 29.8236663,21.9154986 C30.5471973,22.1834425 31.4218462,22.4198285 33.9146942,23.0398168 C38.387324,24.1521904 41.2529852,30.8671585 42.8853159,43.1416121 L43.6743498,49.0748219 L40.9994587,43.7203368 C36.6723133,35.0584383 32.2917502,30.1920153 27.9701625,29.0549774 C23.1825444,27.7953238 20.4433141,24.5862876 19.8613402,19.602377 Z" id="Path-18" stroke="#EAEAEA" stroke-width="2" fill="#FF0000"></path>
                            <path d="M0.11824074,54.8062198 C6.53278593,49.8520633 11.1266983,48.1528199 14.0409508,50.0344014 C16.1362249,51.3872112 18.3738208,51.3872112 20.8369975,50.0394851 C24.4439941,47.6627898 28.4790881,46.472168 32.9179687,46.472168 C37.7065441,46.472168 40.4152407,49.2175076 40.7912909,54.3683484 L40.9810102,56.9669754 L39.1014109,55.1625469 C34.7714314,51.0057365 31.3388688,50.5340133 28.3825951,53.483766 C25.477277,56.3826756 22.7094624,57.2838399 19.0330232,57.0650443 C18.3828896,57.026353 17.8925263,56.9766519 16.7116796,56.8412585 C15.1302718,56.6599375 14.3948264,56.5976562 13.4985352,56.5976562 C10.6784753,56.5976562 8.1881779,58.3289241 5.99144483,61.9308402 L5.22750417,63.1834503 L-0.66627327,55.4121248 L0.11824074,54.8062198 Z" id="Path-19" stroke="#EAEAEA" stroke-width="2" fill="#FF0000"></path>
                        </g>
                        <g id="Group-3">
                            <rect id="Rectangle" fill="#FF0000" transform="translate(25.049420, 111.049420) rotate(20.000000) translate(-25.049420, -111.049420) " x="19.5494202" y="105.54942" width="11" height="11" rx="2"></rect>
                            <rect id="Rectangle-Copy-6" fill="#FF0000" transform="translate(79.549420, 40.549420) rotate(20.000000) translate(-79.549420, -40.549420) " x="72.5494202" y="33.5494202" width="14" height="14" rx="2"></rect>
                            <rect id="Rectangle-Copy" fill="#FDCA31" x="37" y="88" width="8" height="8" rx="2"></rect>
                            <rect id="Rectangle-Copy-5" fill="#FDCA31" x="21" y="32" width="11" height="11" rx="2"></rect>
                            <rect id="Rectangle-Copy-4" fill="#323235" transform="translate(35.049420, 60.049420) rotate(20.000000) translate(-35.049420, -60.049420) " x="29.5494202" y="54.5494202" width="11" height="11" rx="2"></rect>
                            <rect id="Rectangle-Copy-7" fill="#323235" transform="translate(57.549420, 25.549420) rotate(-10.000000) translate(-57.549420, -25.549420) " x="50.5494202" y="18.5494202" width="14" height="14" rx="2"></rect>
                            <rect id="Rectangle-Copy-3" fill="#00D242" transform="translate(19.667197, 68.667197) rotate(-14.000000) translate(-19.667197, -68.667197) " x="14.1671969" y="63.1671969" width="11" height="11" rx="2"></rect>
                            <rect id="Rectangle-Copy-8" fill="#00D242" transform="translate(5.167197, 5.167197) rotate(-84.000000) translate(-5.167197, -5.167197) " x="1.16719692" y="1.16719692" width="8" height="8" rx="2"></rect>
                        </g>
                        <g id="Group-3-Copy" transform="translate(362.500000, 511.500000) rotate(180.000000) translate(-362.500000, -511.500000) translate(318.000000, 452.000000)">
                            <rect id="Rectangle" fill="#FF0000" transform="translate(25.049420, 111.049420) rotate(20.000000) translate(-25.049420, -111.049420) " x="19.5494202" y="105.54942" width="11" height="11" rx="2"></rect>
                            <rect id="Rectangle-Copy-6" fill="#FF0000" transform="translate(79.549420, 40.549420) rotate(20.000000) translate(-79.549420, -40.549420) " x="72.5494202" y="33.5494202" width="14" height="14" rx="2"></rect>
                            <rect id="Rectangle-Copy" fill="#FDCA31" x="37" y="88" width="8" height="8" rx="2"></rect>
                            <rect id="Rectangle-Copy-5" fill="#FDCA31" x="21" y="32" width="11" height="11" rx="2"></rect>
                            <rect id="Rectangle-Copy-4" fill="#323235" transform="translate(35.049420, 60.049420) rotate(20.000000) translate(-35.049420, -60.049420) " x="29.5494202" y="54.5494202" width="11" height="11" rx="2"></rect>
                            <rect id="Rectangle-Copy-7" fill="#323235" transform="translate(57.549420, 25.549420) rotate(-10.000000) translate(-57.549420, -25.549420) " x="50.5494202" y="18.5494202" width="14" height="14" rx="2"></rect>
                            <rect id="Rectangle-Copy-3" fill="#00D242" transform="translate(19.667197, 68.667197) rotate(-14.000000) translate(-19.667197, -68.667197) " x="14.1671969" y="63.1671969" width="11" height="11" rx="2"></rect>
                            <rect id="Rectangle-Copy-8" fill="#00D242" transform="translate(5.167197, 5.167197) rotate(-84.000000) translate(-5.167197, -5.167197) " x="1.16719692" y="1.16719692" width="8" height="8" rx="2"></rect>
                        </g>
                        <g id="Group-17" transform="translate(187.000000, 3.000000)">
                            <path d="" id="Path-8" stroke="#979797"></path>
                            <path d="M136.990234,56.1435547 C136.990234,64.8828125 145.010742,103.318359 159.699219,125.541992 C169.491536,140.357747 177.108398,144.622721 182.549805,138.336914 C204.668945,121.501628 212.258138,101.58431 205.317383,78.5849609 C198.376628,55.585612 179.222331,45.0400391 147.854492,46.9482422 C140.611654,47.2522786 136.990234,50.3173828 136.990234,56.1435547 Z" id="Path-10" fill="#FDCA31"></path>
                            <path d="M53.6840588,20.8797001 C53.6840588,29.618958 61.7045666,68.0545048 76.3930432,90.2781376 C86.1853609,105.093893 93.8022229,109.358867 99.2436291,103.07306 C121.36277,86.2377731 128.951962,66.3204553 122.011207,43.3211064 C115.070452,20.3217574 95.9161552,9.77618451 64.5483166,11.6843876 C57.3054781,11.9884241 53.6840588,15.0535283 53.6840588,20.8797001 Z" id="Path-10" fill="#FDCA31" transform="translate(89.090947, 58.673410) scale(-1, 1) rotate(-43.000000) translate(-89.090947, -58.673410) "></path>
                            <path d="M82.4306641,149.654785 L73.3017578,145.794434 C71.4853516,135.525228 74.5283203,129.415202 82.4306641,127.464355 C94.2841797,124.538086 92.2285156,124.473633 94.5043945,115.996582 C96.7802734,107.519531 104.77832,104.630371 109.419434,104.630371 C114.060547,104.630371 118.536621,95.9082031 116.697754,90.9506836 C115.471842,87.6456706 118.966309,88.8229167 127.181152,94.4824219 C127.48877,103.775716 125.115723,109.00179 120.062012,110.160645 C112.481445,111.898926 105.878418,111.313389 104.90332,119.388872 C103.928223,127.464355 101.472168,132.683594 97.0390625,132.683594 C92.605957,132.683594 89.2485352,133.683594 86.4892578,136.491211 C84.6497396,138.362956 83.296875,142.750814 82.4306641,149.654785 Z" id="Path-11" fill="#FF0000"></path>
                            <path d="M75.298184,208.164066 L66.1692778,204.303714 C64.3528715,194.034509 67.3958403,187.924482 75.298184,185.973636 C87.1516997,183.047367 85.0960356,182.982913 87.3719145,174.505863 C89.6477934,166.028812 97.6458403,163.139652 102.286954,163.139652 C106.928067,163.139652 111.404141,154.417484 109.565274,149.459964 C108.339362,146.154951 111.833829,147.332197 120.048672,152.991703 C120.35629,162.284997 117.983243,167.511071 112.929532,168.669925 C105.348965,170.408206 98.745938,169.82267 97.7708403,177.898153 C96.7957426,185.973636 94.339688,191.192874 89.9065825,191.192874 C85.473477,191.192874 82.1160551,192.192874 79.3567778,195.000492 C77.5172596,196.872236 76.164395,201.260094 75.298184,208.164066 Z" id="Path-11" fill="#323235" transform="translate(92.867602, 177.898153) rotate(-17.000000) translate(-92.867602, -177.898153) "></path>
                            <path d="M121.911143,183.571758 L112.782237,179.711407 C110.965831,169.442201 114.0088,163.332175 121.911143,161.381329 C133.764659,158.455059 131.708995,158.390606 133.984874,149.913555 C136.260753,141.436504 144.2588,138.547344 148.899913,138.547344 C153.541026,138.547344 158.017101,129.825176 156.178233,124.867657 C154.952322,121.562644 158.446788,122.73989 166.661632,128.399395 C166.969249,137.692689 164.596202,142.918763 159.542491,144.077618 C151.961925,145.815899 145.358897,145.230362 144.3838,153.305845 C143.408702,161.381329 140.952647,166.600567 136.519542,166.600567 C132.086436,166.600567 128.729015,167.600567 125.969737,170.408184 C124.130219,172.279929 122.777354,176.667787 121.911143,183.571758 Z" id="Path-11-Copy-2" fill="#323235" transform="translate(139.480561, 153.305845) scale(-1, 1) rotate(-34.000000) translate(-139.480561, -153.305845) "></path>
                            <rect id="Rectangle" fill="#FF0000" x="50" y="147" width="13" height="13"></rect>
                            <rect id="Rectangle-Copy" fill="#FF0000" x="110" y="174" width="13" height="13"></rect>
                            <rect id="Rectangle-Copy-2" fill="#FF0000" x="34" y="193" width="13" height="13"></rect>
                            <rect id="Rectangle-Copy-3" fill="#FF0000" transform="translate(9.157408, 111.157408) rotate(50.000000) translate(-9.157408, -111.157408) " x="2.65740834" y="104.657408" width="13" height="13"></rect>
                            <rect id="Rectangle-Copy-4" fill="#00D242" transform="translate(36.157408, 105.157408) rotate(50.000000) translate(-36.157408, -105.157408) " x="29.6574083" y="98.6574083" width="13" height="13"></rect>
                            <rect id="Rectangle-Copy-5" fill="#00D242" transform="translate(43.157408, 171.157408) rotate(50.000000) translate(-43.157408, -171.157408) " x="36.6574083" y="164.657408" width="13" height="13"></rect>
                            <rect id="Rectangle-Copy-9" fill="#00D242" transform="translate(19.157408, 178.157408) rotate(50.000000) translate(-19.157408, -178.157408) " x="12.6574083" y="171.657408" width="13" height="13"></rect>
                            <rect id="Rectangle-Copy-10" fill="#00D242" x="58.6574083" y="173.657408" width="13" height="13"></rect>
                            <rect id="Rectangle-Copy-6" fill="#00D242" transform="translate(110.157408, 203.157408) rotate(50.000000) translate(-110.157408, -203.157408) " x="103.657408" y="196.657408" width="13" height="13"></rect>
                            <rect id="Rectangle-Copy-7" fill="#00D242" transform="translate(163.157408, 205.157408) rotate(50.000000) translate(-163.157408, -205.157408) " x="156.657408" y="198.657408" width="13" height="13"></rect>
                            <rect id="Rectangle-Copy-8" fill="#00D242" transform="translate(183.157408, 153.157408) rotate(50.000000) translate(-183.157408, -153.157408) " x="176.657408" y="146.657408" width="13" height="13"></rect>
                            <path d="M29.298184,156.164066 L20.1692778,152.303714 C18.3528715,142.034509 21.3958403,135.924482 29.298184,133.973636 C41.1516997,131.047367 39.0960356,130.982913 41.3719145,122.505863 C43.6477934,114.028812 51.6458403,111.139652 56.2869536,111.139652 C60.9280669,111.139652 65.4041411,102.417484 63.5652739,97.4599642 C62.3393624,94.1549512 65.8338286,95.3321973 74.0486723,100.991703 C74.3562895,110.284997 71.9832426,115.511071 66.9295317,116.669925 C59.3489653,118.408206 52.745938,117.82267 51.7708403,125.898153 C50.7957426,133.973636 48.339688,139.192874 43.9065825,139.192874 C39.473477,139.192874 36.1160551,140.192874 33.3567778,143.000492 C31.5172596,144.872236 30.164395,149.260094 29.298184,156.164066 Z" id="Path-11-Copy" fill="#323235" transform="translate(46.867602, 125.898153) rotate(13.000000) translate(-46.867602, -125.898153) "></path>
                            <path d="M159.470703,172.914062 L167.902344,165.231934 C170.449394,170.902337 172.292005,174.540358 173.430176,176.145996 C174.633206,177.843131 178.462891,180.129883 178.462891,180.129883 C178.462891,180.129883 178.994629,164.451172 193.408691,165.9375 C207.822754,167.423828 202.317871,189.237305 193.408691,190.257324 C187.469238,190.937337 192.273926,193.138184 207.822754,196.859863 L202.47168,207.003906 C188.741536,204.629883 181.205404,200.074544 179.863281,193.337891 C171.199219,191.986003 164.401693,185.17806 159.470703,172.914062 Z M186.510254,182.058594 C193.721842,179.596842 195.604492,177.135091 192.158203,174.67334 C188.711914,172.211589 186.829264,174.67334 186.510254,182.058594 Z" id="Combined-Shape" fill="#FF0000"></path>
                            <path d="M1.43212891,76.1445312 L7.22314453,67.4780273 C9.66357422,70.9008789 13.0761719,72.0556641 17.4609375,70.9423828 C24.0380859,69.2724609 30.8544922,69.0493164 34.112793,76.1445312 C36.2849935,80.8746745 39.4208984,82.2579753 43.5205078,80.2944336 L43.5205078,90.6266149 C34.9264323,89.9704816 29.733724,87.8884004 27.9423828,84.3803711 C25.2553711,79.1183272 22.4956055,80.4638672 16.1206055,82.0117187 C11.8706055,83.0436198 6.97444661,81.0878906 1.43212891,76.1445312 Z" id="Path-14" fill="#FF0000"></path>
                        </g>
                    </g>
                </g>
            </g>
        </g>
    </g>
</svg>